<mxfile host="app.diagrams.net" agent="Mozilla/5.0 (Windows NT 10.0; Win64; x64) AppleWebKit/537.36 (KHTML, like Gecko) Chrome/135.0.0.0 Safari/537.36" version="27.0.6">
  <diagram name="Página-1" id="Uby4DdCS2aKfuwwsVgoy">
    <mxGraphModel dx="1585" dy="955" grid="1" gridSize="10" guides="1" tooltips="1" connect="1" arrows="1" fold="1" page="1" pageScale="1" pageWidth="1169" pageHeight="827" math="0" shadow="0">
      <root>
        <mxCell id="0" />
        <mxCell id="1" parent="0" />
        <mxCell id="0SUM2DXE3MnABpjG0to5-1" value="" style="group" vertex="1" connectable="0" parent="1">
          <mxGeometry x="130" y="140" width="78" height="113" as="geometry" />
        </mxCell>
        <mxCell id="0SUM2DXE3MnABpjG0to5-8" style="edgeStyle=none;curved=1;rounded=0;orthogonalLoop=1;jettySize=auto;html=1;fontSize=12;startSize=8;endSize=8;" edge="1" parent="0SUM2DXE3MnABpjG0to5-1" source="J3wXxuo7UUnqpM9CAC4g-1">
          <mxGeometry relative="1" as="geometry">
            <mxPoint x="169.99999999999977" y="39" as="targetPoint" />
          </mxGeometry>
        </mxCell>
        <mxCell id="J3wXxuo7UUnqpM9CAC4g-1" value="" style="sketch=0;points=[[0,0,0],[0.25,0,0],[0.5,0,0],[0.75,0,0],[1,0,0],[0,1,0],[0.25,1,0],[0.5,1,0],[0.75,1,0],[1,1,0],[0,0.25,0],[0,0.5,0],[0,0.75,0],[1,0.25,0],[1,0.5,0],[1,0.75,0]];outlineConnect=0;fontColor=#232F3E;fillColor=#8C4FFF;strokeColor=#ffffff;dashed=0;verticalLabelPosition=bottom;verticalAlign=top;align=center;html=1;fontSize=12;fontStyle=0;aspect=fixed;shape=mxgraph.aws4.resourceIcon;resIcon=mxgraph.aws4.api_gateway;" parent="0SUM2DXE3MnABpjG0to5-1" vertex="1">
          <mxGeometry width="78" height="78" as="geometry" />
        </mxCell>
        <mxCell id="0SUM2DXE3MnABpjG0to5-15" style="edgeStyle=none;curved=1;rounded=0;orthogonalLoop=1;jettySize=auto;html=1;fontSize=12;startSize=8;endSize=8;" edge="1" parent="0SUM2DXE3MnABpjG0to5-1" source="J3wXxuo7UUnqpM9CAC4g-7">
          <mxGeometry relative="1" as="geometry">
            <mxPoint x="38" y="220" as="targetPoint" />
          </mxGeometry>
        </mxCell>
        <mxCell id="J3wXxuo7UUnqpM9CAC4g-7" value="API Gateway" style="text;html=1;align=center;verticalAlign=middle;whiteSpace=wrap;rounded=0;" parent="0SUM2DXE3MnABpjG0to5-1" vertex="1">
          <mxGeometry x="8" y="83" width="60" height="30" as="geometry" />
        </mxCell>
        <mxCell id="0SUM2DXE3MnABpjG0to5-2" value="" style="group" vertex="1" connectable="0" parent="1">
          <mxGeometry x="479" y="150" width="60" height="113" as="geometry" />
        </mxCell>
        <mxCell id="0SUM2DXE3MnABpjG0to5-9" style="edgeStyle=none;curved=1;rounded=0;orthogonalLoop=1;jettySize=auto;html=1;fontSize=12;startSize=8;endSize=8;" edge="1" parent="0SUM2DXE3MnABpjG0to5-2" source="J3wXxuo7UUnqpM9CAC4g-2">
          <mxGeometry relative="1" as="geometry">
            <mxPoint x="-89.00000000000023" y="37.5" as="targetPoint" />
          </mxGeometry>
        </mxCell>
        <mxCell id="J3wXxuo7UUnqpM9CAC4g-2" value="" style="outlineConnect=0;dashed=0;verticalLabelPosition=bottom;verticalAlign=top;align=center;html=1;shape=mxgraph.aws3.volume;fillColor=#E05243;gradientColor=none;" parent="0SUM2DXE3MnABpjG0to5-2" vertex="1">
          <mxGeometry x="3.75" width="52.5" height="75" as="geometry" />
        </mxCell>
        <mxCell id="J3wXxuo7UUnqpM9CAC4g-8" value="EBS" style="text;html=1;align=center;verticalAlign=middle;whiteSpace=wrap;rounded=0;" parent="0SUM2DXE3MnABpjG0to5-2" vertex="1">
          <mxGeometry y="83" width="60" height="30" as="geometry" />
        </mxCell>
        <mxCell id="0SUM2DXE3MnABpjG0to5-3" value="" style="group" vertex="1" connectable="0" parent="1">
          <mxGeometry x="470" y="324" width="78" height="116" as="geometry" />
        </mxCell>
        <mxCell id="0SUM2DXE3MnABpjG0to5-11" style="edgeStyle=none;curved=1;rounded=0;orthogonalLoop=1;jettySize=auto;html=1;fontSize=12;startSize=8;endSize=8;" edge="1" parent="0SUM2DXE3MnABpjG0to5-3" source="J3wXxuo7UUnqpM9CAC4g-3">
          <mxGeometry relative="1" as="geometry">
            <mxPoint x="150" y="39" as="targetPoint" />
          </mxGeometry>
        </mxCell>
        <mxCell id="J3wXxuo7UUnqpM9CAC4g-3" value="" style="sketch=0;outlineConnect=0;fontColor=#232F3E;gradientColor=none;fillColor=#C925D1;strokeColor=none;dashed=0;verticalLabelPosition=bottom;verticalAlign=top;align=center;html=1;fontSize=12;fontStyle=0;aspect=fixed;pointerEvents=1;shape=mxgraph.aws4.rds_mysql_instance;" parent="0SUM2DXE3MnABpjG0to5-3" vertex="1">
          <mxGeometry width="78" height="78" as="geometry" />
        </mxCell>
        <mxCell id="J3wXxuo7UUnqpM9CAC4g-9" value="MYSQL" style="text;html=1;align=center;verticalAlign=middle;whiteSpace=wrap;rounded=0;" parent="0SUM2DXE3MnABpjG0to5-3" vertex="1">
          <mxGeometry x="9" y="86" width="60" height="30" as="geometry" />
        </mxCell>
        <mxCell id="0SUM2DXE3MnABpjG0to5-4" value="" style="group" vertex="1" connectable="0" parent="1">
          <mxGeometry x="639" y="320" width="76.5" height="120" as="geometry" />
        </mxCell>
        <mxCell id="J3wXxuo7UUnqpM9CAC4g-6" value="" style="outlineConnect=0;dashed=0;verticalLabelPosition=bottom;verticalAlign=top;align=center;html=1;shape=mxgraph.aws3.sns;fillColor=#D9A741;gradientColor=none;" parent="0SUM2DXE3MnABpjG0to5-4" vertex="1">
          <mxGeometry width="76.5" height="76.5" as="geometry" />
        </mxCell>
        <mxCell id="J3wXxuo7UUnqpM9CAC4g-12" value="&lt;font style=&quot;vertical-align: inherit;&quot;&gt;&lt;font style=&quot;vertical-align: inherit;&quot;&gt;SNS&lt;/font&gt;&lt;/font&gt;" style="text;html=1;align=center;verticalAlign=middle;whiteSpace=wrap;rounded=0;" parent="0SUM2DXE3MnABpjG0to5-4" vertex="1">
          <mxGeometry x="9" y="90" width="60" height="30" as="geometry" />
        </mxCell>
        <mxCell id="0SUM2DXE3MnABpjG0to5-7" value="" style="group" vertex="1" connectable="0" parent="1">
          <mxGeometry x="300" y="126.5" width="82.5" height="140" as="geometry" />
        </mxCell>
        <mxCell id="J3wXxuo7UUnqpM9CAC4g-5" value="" style="outlineConnect=0;dashed=0;verticalLabelPosition=bottom;verticalAlign=top;align=center;html=1;shape=mxgraph.aws3.cloudwatch;fillColor=#759C3E;gradientColor=none;" parent="0SUM2DXE3MnABpjG0to5-7" vertex="1">
          <mxGeometry width="82.5" height="93" as="geometry" />
        </mxCell>
        <mxCell id="J3wXxuo7UUnqpM9CAC4g-11" value="Cloud&lt;br/&gt;Watch" style="text;html=1;align=center;verticalAlign=middle;whiteSpace=wrap;rounded=0;" parent="0SUM2DXE3MnABpjG0to5-7" vertex="1">
          <mxGeometry x="11" y="110" width="60" height="30" as="geometry" />
        </mxCell>
        <mxCell id="0SUM2DXE3MnABpjG0to5-10" style="edgeStyle=none;curved=1;rounded=0;orthogonalLoop=1;jettySize=auto;html=1;fontSize=12;startSize=8;endSize=8;" edge="1" parent="1" source="J3wXxuo7UUnqpM9CAC4g-8" target="J3wXxuo7UUnqpM9CAC4g-3">
          <mxGeometry relative="1" as="geometry" />
        </mxCell>
        <mxCell id="0SUM2DXE3MnABpjG0to5-14" value="" style="group" vertex="1" connectable="0" parent="1">
          <mxGeometry x="109" y="373" width="120" height="97" as="geometry" />
        </mxCell>
        <mxCell id="J3wXxuo7UUnqpM9CAC4g-4" value="" style="points=[[0,0.5,0],[0.24,0,0],[0.5,0.28,0],[0.995,0.475,0],[0.5,0.72,0],[0.24,1,0]];verticalLabelPosition=bottom;sketch=0;html=1;verticalAlign=top;aspect=fixed;align=center;pointerEvents=1;shape=mxgraph.cisco19.key;fillColor=#005073;strokeColor=none;rotation=90;direction=south;" parent="0SUM2DXE3MnABpjG0to5-14" vertex="1">
          <mxGeometry x="33" y="-33" width="54" height="120" as="geometry" />
        </mxCell>
        <mxCell id="J3wXxuo7UUnqpM9CAC4g-10" value="Criptografia simétrica" style="text;html=1;align=center;verticalAlign=middle;whiteSpace=wrap;rounded=0;" parent="0SUM2DXE3MnABpjG0to5-14" vertex="1">
          <mxGeometry x="33" y="67" width="60" height="30" as="geometry" />
        </mxCell>
      </root>
    </mxGraphModel>
  </diagram>
</mxfile>
